<svg width="33" height="33" viewBox="0 0 33 33" fill="none" xmlns="http://www.w3.org/2000/svg">
<path d="M10.7654 19.9379C8.17959 20.1042 5.83289 21.0891 4.50132 24.5979C4.34986 24.9981 3.9857 25.2411 3.56097 25.2411C2.84491 25.2411 0.630984 23.4577 0 23.0272C0.000644519 28.3349 2.4453 33 8.25048 33C13.1398 33 16.5003 30.1789 16.5003 25.2534C16.5003 25.0529 16.4584 24.8615 16.4378 24.6649L10.7654 19.9379ZM29.5125 0C28.5354 0 27.6196 0.432481 26.9209 1.06025C13.7463 12.8294 12.3754 13.1059 12.3754 16.5703C12.3754 17.4533 12.5849 18.295 12.9381 19.0646L17.0514 22.4922C17.5161 22.6082 17.995 22.6875 18.4945 22.6875C22.4976 22.6875 24.8178 19.7568 32.1041 6.15785C32.5798 5.23295 33 4.23393 33 3.19365C33 1.33031 31.3243 0 29.5125 0Z" fill="url(#paint0_linear_5_153)"/>
<defs>
<linearGradient id="paint0_linear_5_153" x1="0" y1="11" x2="16.5" y2="33" gradientUnits="userSpaceOnUse">
<stop stop-color="#B5EEFF"/>
<stop offset="1" stop-color="#6FD4FF"/>
</linearGradient>
</defs>
</svg>
