<svg width="41" height="31" viewBox="0 0 41 31" fill="none" xmlns="http://www.w3.org/2000/svg">
<path d="M39.7188 25.8333H5.125V1.29167C5.125 0.578021 4.55164 0 3.84375 0H1.28125C0.573359 0 0 0.578021 0 1.29167V28.4167C0 29.8431 1.14752 31 2.5625 31H39.7188C40.4266 31 41 30.422 41 29.7083V27.125C41 26.4114 40.4266 25.8333 39.7188 25.8333ZM37.1562 2.58333H27.7022C25.9902 2.58333 25.1325 4.67018 26.3433 5.89081L28.9378 8.50643L23.0625 14.4303L17.1872 8.50724C16.1862 7.49813 14.5638 7.49813 13.5636 8.50724L8.06307 14.0525C7.56258 14.5571 7.56258 15.3749 8.06307 15.8794L9.87443 17.7055C10.3749 18.2101 11.1861 18.2101 11.6866 17.7055L15.375 13.9863L21.2503 19.9094C22.2513 20.9185 23.8737 20.9185 24.8739 19.9094L32.5614 12.1594L35.1559 14.7751C36.3667 15.9957 38.4367 15.1311 38.4367 13.4051V3.875C38.4375 3.16135 37.8641 2.58333 37.1562 2.58333Z" fill="url(#paint0_linear_5_163)"/>
<defs>
<linearGradient id="paint0_linear_5_163" x1="0" y1="10.3333" x2="13.856" y2="34.7676" gradientUnits="userSpaceOnUse">
<stop stop-color="#B5EEFF"/>
<stop offset="1" stop-color="#6FD4FF"/>
</linearGradient>
</defs>
</svg>
