<svg width="39" height="31" viewBox="0 0 39 31" fill="none" xmlns="http://www.w3.org/2000/svg">
<path d="M23.4 19.375H15.6C14.5232 19.375 13.65 20.2426 13.65 21.3125V29.0625C13.65 30.1324 14.5232 31 15.6 31H23.4C24.4768 31 25.35 30.1324 25.35 29.0625V21.3125C25.35 20.2426 24.4768 19.375 23.4 19.375ZM11.7 1.9375C11.7 0.867637 10.8268 0 9.75 0H1.95C0.873234 0 0 0.867637 0 1.9375V9.6875C0 10.7574 0.873234 11.625 1.95 11.625H7.78294L12.2411 19.3774C12.9175 18.2234 14.1619 17.4375 15.6 17.4375H15.6171L11.7 10.6266V7.75H25.35V3.875H11.7V1.9375ZM37.05 0H29.25C28.1732 0 27.3 0.867637 27.3 1.9375V9.6875C27.3 10.7574 28.1732 11.625 29.25 11.625H37.05C38.1268 11.625 39 10.7574 39 9.6875V1.9375C39 0.867637 38.1268 0 37.05 0Z" fill="url(#paint0_linear_5_159)"/>
<defs>
<linearGradient id="paint0_linear_5_159" x1="0" y1="10.3333" x2="14.203" y2="34.1578" gradientUnits="userSpaceOnUse">
<stop stop-color="#B5EEFF"/>
<stop offset="1" stop-color="#6FD4FF"/>
</linearGradient>
</defs>
</svg>
