<svg width="30" height="30" viewBox="0 0 30 30" fill="none" xmlns="http://www.w3.org/2000/svg">
<path d="M29.3626 23.1833L22.5017 16.3226C21.1482 14.9692 19.1269 14.7056 17.498 15.5083L11.2523 9.26277V5.62445L3.75272 0L0.00292948 3.74963L5.62762 11.2489H9.26609L15.5118 17.4944C14.715 19.1231 14.9728 21.1444 16.3262 22.4978L23.1872 29.3585C24.0426 30.2138 25.4253 30.2138 26.2749 29.3585L29.3626 26.2709C30.2122 25.4155 30.2122 24.0328 29.3626 23.1833ZM19.4374 13.1823C21.0955 13.1823 22.654 13.8268 23.8258 14.9985L24.9625 16.1351C25.8882 15.7309 26.7671 15.1684 27.5287 14.4068C29.7024 12.2332 30.4407 9.17489 29.7493 6.39781C29.6204 5.87052 28.9583 5.6889 28.5716 6.07558L24.2125 10.4345L20.2342 9.77248L19.5722 5.79436L23.9313 1.43541C24.318 1.04873 24.1305 0.386681 23.5973 0.251929C20.8201 -0.433551 17.7617 0.304658 15.5939 2.47241C13.924 4.14217 13.1389 6.34508 13.1799 8.54214L17.9902 13.3522C18.4648 13.2409 18.957 13.1823 19.4374 13.1823ZM13.3498 17.9865L10.0278 14.6646L1.09857 23.5993C-0.366191 25.064 -0.366191 27.4368 1.09857 28.9015C2.56333 30.3662 4.93625 30.3662 6.40101 28.9015L13.6428 21.66C13.1975 20.4941 13.0627 19.2227 13.3498 17.9865ZM3.75272 27.6536C2.97933 27.6536 2.34655 27.0208 2.34655 26.2474C2.34655 25.4682 2.97347 24.8413 3.75272 24.8413C4.53197 24.8413 5.15889 25.4682 5.15889 26.2474C5.15889 27.0208 4.53197 27.6536 3.75272 27.6536Z" fill="url(#paint0_linear_5_161)"/>
<defs>
<linearGradient id="paint0_linear_5_161" x1="0" y1="10" x2="15" y2="30" gradientUnits="userSpaceOnUse">
<stop stop-color="#B5EEFF"/>
<stop offset="1" stop-color="#6FD4FF"/>
</linearGradient>
</defs>
</svg>
