<svg width="33" height="33" viewBox="0 0 33 33" fill="none" xmlns="http://www.w3.org/2000/svg">
<circle cx="16.9113" cy="16.0887" r="16.0887" fill="#4176FA"/>
<path d="M15.25 14.825C16.2437 14.2778 16.7625 13.4497 16.7625 12.1609C16.7625 9.61922 15.1188 9 13.2219 9H8V21.7588H13.3688C15.3813 21.7588 17.2719 20.6464 17.2719 18.0543C17.2719 16.4522 16.6125 15.2678 15.25 14.825ZM10.4344 11.1781H12.7188C13.5969 11.1781 14.3875 11.4625 14.3875 12.6361C14.3875 13.7197 13.7719 14.1554 12.9031 14.1554H10.4344V11.1781ZM13.0375 19.5915H10.4344V16.0778H13.0875C14.1594 16.0778 14.8375 16.5926 14.8375 17.8995C14.8375 19.1883 14.0281 19.5915 13.0375 19.5915ZM24.2406 10.9261H19.75V9.66962H24.2406V10.9261ZM26 17.2731C26 14.5406 24.6125 12.2617 22.0969 12.2617C19.6531 12.2617 17.9937 14.3786 17.9937 17.1507C17.9937 20.0271 19.5656 22 22.0969 22C24.0125 22 25.2531 21.0064 25.85 18.8931H23.9062C23.6969 19.6815 22.8344 20.0991 22.1656 20.0991C20.875 20.0991 20.1969 19.2279 20.1969 17.7483H25.9813C25.9906 17.5971 26 17.4351 26 17.2731ZM20.2 16.1498C20.2719 14.9366 20.9719 14.177 22.0281 14.177C23.1344 14.177 23.6906 14.9258 23.7844 16.1498H20.2Z" fill="white"/>
</svg>
