<svg width="33" height="33" viewBox="0 0 33 33" fill="none" xmlns="http://www.w3.org/2000/svg">
<path d="M18.4387 16.5L24.3512 10.6013C24.6101 10.3423 24.7556 9.99118 24.7556 9.62501C24.7556 9.25885 24.6101 8.90768 24.3512 8.64876C24.0923 8.38984 23.7411 8.24438 23.375 8.24438C23.0088 8.24438 22.6576 8.38984 22.3987 8.64876L16.5 14.5613L10.6012 8.64876C10.3423 8.38984 9.99114 8.24438 9.62498 8.24438C9.25881 8.24438 8.90764 8.38984 8.64873 8.64876C8.38981 8.90768 8.24435 9.25885 8.24435 9.62501C8.24435 9.99118 8.38981 10.3423 8.64873 10.6013L14.5612 16.5L8.64873 22.3988C8.51985 22.5266 8.41756 22.6787 8.34775 22.8462C8.27794 23.0138 8.242 23.1935 8.242 23.375C8.242 23.5565 8.27794 23.7362 8.34775 23.9038C8.41756 24.0714 8.51985 24.2234 8.64873 24.3513C8.77655 24.4801 8.92863 24.5824 9.09618 24.6522C9.26374 24.722 9.44346 24.758 9.62498 24.758C9.80649 24.758 9.98621 24.722 10.1538 24.6522C10.3213 24.5824 10.4734 24.4801 10.6012 24.3513L16.5 18.4388L22.3987 24.3513C22.5266 24.4801 22.6786 24.5824 22.8462 24.6522C23.0137 24.722 23.1935 24.758 23.375 24.758C23.5565 24.758 23.7362 24.722 23.9038 24.6522C24.0713 24.5824 24.2234 24.4801 24.3512 24.3513C24.4801 24.2234 24.5824 24.0714 24.6522 23.9038C24.722 23.7362 24.7579 23.5565 24.7579 23.375C24.7579 23.1935 24.722 23.0138 24.6522 22.8462C24.5824 22.6787 24.4801 22.5266 24.3512 22.3988L18.4387 16.5Z" fill="white"/>
</svg>
