<svg width="101" height="20" viewBox="0 0 101 20" fill="none" xmlns="http://www.w3.org/2000/svg">
<path d="M47.5322 0.503851C48.7739 0.341881 49.9797 0.161916 51.2035 0.0539363C51.3474 0.0359397 51.6534 0.539844 51.6534 0.791796C51.6894 2.80741 51.6714 4.80503 51.6714 6.82065C51.6714 7.10859 51.6714 7.39654 51.6714 7.70248C51.8153 7.70248 51.8873 7.72048 51.9233 7.70248C55.3787 5.21895 59.3559 6.80265 60.1478 10.9959C60.4897 12.7775 60.4537 14.5592 59.8778 16.3048C58.78 19.6342 55.1987 20.894 52.2653 18.9683C52.1213 18.8784 51.9593 18.8064 51.7074 18.6624C51.7973 19.5442 51.2934 19.5622 50.6996 19.5442C49.6558 19.5262 48.612 19.5442 47.5142 19.5442C47.5322 13.1554 47.5322 6.87464 47.5322 0.503851ZM51.6714 13.1194C51.6354 13.1374 51.5994 13.1374 51.5814 13.1554C51.7434 13.9113 51.8153 14.6852 52.0853 15.387C52.4632 16.3048 53.3091 16.6828 54.2989 16.5208C55.1987 16.3768 55.9006 15.8909 55.9546 14.9191C56.0265 13.8033 56.0985 12.6515 55.9546 11.5537C55.8106 10.33 55.0367 9.79008 53.867 9.80808C52.7152 9.82608 52.0133 10.402 51.7973 11.6077C51.7074 12.1116 51.7074 12.6155 51.6714 13.1194Z" fill="#1877F2"/>
<path d="M93.0096 14.3793C93.0096 15.693 93.0096 17.0068 93.0096 18.3205C93.0096 19.5623 93.0096 19.5623 91.8038 19.5443C90.868 19.5443 89.9502 19.5443 88.9424 19.5443C88.9424 13.1915 88.9424 6.89269 88.9424 0.485908C90.2381 0.323938 91.5339 0.161969 92.9556 0C92.9556 4.04923 92.9556 8.02647 92.9556 11.9857C93.0276 12.0217 93.1176 12.0397 93.1896 12.0757C93.3695 11.8058 93.5675 11.5178 93.7475 11.2479C94.5573 9.9881 95.3312 8.71034 96.195 7.48657C96.429 7.16264 96.9329 6.87469 97.3288 6.85669C98.4626 6.76671 99.5964 6.8207 100.928 6.8207C100.712 7.23462 100.586 7.52257 100.424 7.77452C99.4884 9.23224 98.6066 10.744 97.5987 12.1477C97.0408 12.9395 97.0948 13.5334 97.6167 14.2893C98.7505 15.945 99.7943 17.6546 101 19.5443C99.4344 19.5443 98.0847 19.5623 96.7349 19.5083C96.5189 19.5083 96.303 19.1304 96.141 18.8964C95.1512 17.3667 94.1794 15.837 93.1896 14.3073C93.1536 14.3433 93.0816 14.3613 93.0096 14.3793Z" fill="#1877F2"/>
<path d="M18.4495 18.3025C17.2977 19.6882 15.858 20.0481 14.2743 19.7962C11.7728 19.4003 10.2791 17.8885 9.93712 15.1351C9.75716 13.6593 9.77515 12.0756 10.0811 10.6179C10.9449 6.62268 15.1021 5.29094 18.2335 7.86445C18.2695 7.90044 18.3415 7.90044 18.4855 7.93643C18.3415 6.80265 19.0434 6.71267 19.9072 6.78465C20.5551 6.83864 21.239 6.74866 21.8868 6.82065C22.1208 6.85664 22.4987 7.21657 22.4987 7.41453C22.5347 11.2478 22.5347 15.0811 22.4987 18.9143C22.4987 19.1303 22.1208 19.5262 21.9048 19.5442C21.005 19.6162 20.1052 19.5442 19.2054 19.5802C18.3055 19.6162 18.6475 18.8604 18.4495 18.3025ZM18.3055 13.2454C18.3055 12.7595 18.3415 12.2916 18.3055 11.8057C18.2155 10.6899 17.4957 9.93405 16.4699 9.80808C15.4261 9.6821 14.3643 10.204 14.2383 11.1758C14.0583 12.4176 14.0223 13.7313 14.1663 14.9731C14.2923 16.0709 15.2821 16.6288 16.4339 16.5388C17.4777 16.4488 18.2155 15.711 18.3055 14.5952C18.3235 14.1453 18.3055 13.6953 18.3055 13.2454Z" fill="#1877F2"/>
<path d="M38.4619 14.6672C38.5879 16.0529 39.1997 16.7188 40.4955 16.6828C41.7733 16.6648 43.033 16.4309 44.3108 16.2689C44.5807 16.2329 44.8327 16.1429 45.2106 16.0529C45.4446 16.8628 45.6785 17.6546 45.8585 18.4645C45.8945 18.6265 45.6425 18.9324 45.4446 19.0224C42.6011 20.1922 39.7217 20.1742 36.8782 19.0224C35.4025 18.4105 34.5926 17.1147 34.4307 15.603C34.2687 13.9833 34.2327 12.3097 34.4487 10.69C34.7366 8.58436 36.1403 7.21662 38.2099 6.85669C39.6137 6.60474 41.1434 6.60474 42.5471 6.85669C44.6347 7.21662 45.7505 8.74633 46.0924 10.7799C46.2724 11.8057 46.2184 12.8675 46.3084 13.9113C46.3624 14.5052 46.1104 14.6852 45.5345 14.6852C43.5009 14.6672 41.4493 14.6852 39.4157 14.6852C39.0918 14.6672 38.7858 14.6672 38.4619 14.6672ZM42.3671 11.8057C42.5291 10.9599 42.4391 10.258 41.7013 9.79013C40.9454 9.30422 39.9016 9.30422 39.1818 9.82612C38.5159 10.312 38.2639 10.9599 38.4619 11.8057C39.7576 11.8057 41.0174 11.8057 42.3671 11.8057Z" fill="#1877F2"/>
<path d="M74.8691 13.4795C75.0131 12.4177 75.0491 11.4458 75.2831 10.528C75.9129 8.06249 77.9286 6.58677 80.97 6.49679C83.8134 6.4068 86.297 7.5046 87.2868 10.2401C88.4026 13.3715 87.5747 17.0248 85.3611 18.6985C82.7157 20.6961 76.6508 20.2822 75.3551 16.107C75.0671 15.2251 75.0131 14.3073 74.8691 13.4795ZM83.5615 13.1015C83.5435 12.7056 83.5435 12.1297 83.4535 11.5718C83.2915 10.51 82.4457 9.82615 81.4019 9.79016C80.2861 9.75417 79.4043 10.3121 79.2603 11.4099C79.1163 12.5256 79.0983 13.6774 79.2243 14.7932C79.3683 15.981 80.2321 16.5569 81.4559 16.5209C82.5717 16.4849 83.3275 15.783 83.4715 14.6132C83.5075 14.1813 83.5255 13.7314 83.5615 13.1015Z" fill="#1877F2"/>
<path d="M61.2097 13.3536C61.3357 12.4358 61.3537 11.5 61.5877 10.6002C62.2715 7.84668 65.097 6.17299 68.2104 6.49693C73.1954 7.01883 74.5452 10.5642 73.9333 14.5954C73.1775 19.5444 67.3646 21.65 63.3873 18.5366C61.6956 17.2229 61.1737 15.4232 61.2097 13.3536ZM69.8661 13.0477C69.8481 12.7058 69.8481 12.1659 69.7761 11.644C69.6321 10.5822 68.8223 9.86229 67.7785 9.8083C66.6267 9.73632 65.7089 10.3302 65.5649 11.446C65.4209 12.5618 65.4209 13.7136 65.5469 14.8293C65.6729 15.9811 66.5727 16.575 67.7965 16.539C68.8583 16.503 69.6321 15.8012 69.7761 14.7034C69.8301 14.2175 69.8301 13.7316 69.8661 13.0477Z" fill="#1877F2"/>
<path d="M2.64868 10.2763C1.92882 10.2763 1.33493 10.2583 0.759043 10.2763C0.237142 10.2943 -0.0328062 10.0963 0.00318695 9.53844C0.0211835 9.30448 0.00318695 9.05253 0.00318695 8.81858C0.00318695 6.87495 0.00318697 6.85695 1.89283 6.69498C2.36074 6.65899 2.52271 6.46103 2.48671 6.02911C2.46872 5.72317 2.48671 5.43522 2.48671 5.12928C2.52271 1.8719 4.08841 0.198217 7.34579 0.0182515C8.02966 -0.0177417 8.73152 0.0722412 9.3974 0.198217C9.59536 0.23421 9.81132 0.558149 9.9013 0.792105C9.99129 0.990067 9.93729 1.26002 9.9193 1.51197C9.9013 2.08786 10.0813 2.78972 9.81132 3.16765C9.57736 3.49159 8.82151 3.4556 8.29961 3.58157C6.87788 3.90551 6.248 5.0033 6.73391 6.35305C6.7879 6.51502 7.12983 6.65899 7.34579 6.67698C7.93967 6.73097 8.55156 6.71298 9.14544 6.69498C9.66735 6.69498 9.93729 6.83895 9.82932 7.43284C9.70334 8.1707 9.70334 8.92656 9.55937 9.66442C9.52337 9.89837 9.19944 10.0783 9.00147 10.2583C8.96548 10.2943 8.89349 10.2583 8.82151 10.2763C8.13764 10.3123 7.11183 10.1143 6.85988 10.4743C6.49995 10.9782 6.66192 11.896 6.64392 12.6338C6.62593 14.6135 6.62593 16.5931 6.64392 18.5727C6.66192 19.2566 6.46396 19.5625 5.7261 19.5265C4.98824 19.4725 4.23238 19.4905 3.47653 19.5265C2.81065 19.5625 2.5767 19.3286 2.59469 18.6627C2.63069 16.2692 2.61269 13.8576 2.61269 11.4641C2.64868 11.1221 2.64868 10.7802 2.64868 10.2763Z" fill="#1877F2"/>
<path d="M33.1172 10.2401C31.3356 10.0062 29.3559 8.89037 28.1682 10.96C27.3583 12.3817 27.3403 14.1634 28.4021 15.5671C29.6799 17.2228 31.4255 16.4489 33.1172 16.017C33.3692 16.8449 33.6571 17.6727 33.8551 18.5005C33.8911 18.6805 33.6931 19.0764 33.5132 19.1484C31.1556 20.1022 28.798 20.1742 26.4765 19.0404C24.4429 18.0506 23.723 16.197 23.579 14.1094C23.5071 13.0836 23.579 12.0038 23.777 10.996C24.2809 8.45845 26.2065 6.74878 28.798 6.6588C30.2558 6.60481 31.7495 6.85676 33.2252 7.03672C33.8911 7.12671 34.071 7.59462 33.8191 8.2425C33.5671 8.89037 33.3512 9.57424 33.1172 10.2401Z" fill="#1877F2"/>
</svg>
