<svg width="100" height="29" viewBox="0 0 100 29" fill="none" xmlns="http://www.w3.org/2000/svg">
<path d="M77.8651 7.75008C77.934 6.66891 78.6054 6.76187 79.1925 6.88927C79.7796 7.01667 80.5147 7.04938 80.5009 8.02726C80.4648 10.5494 80.2134 13.0733 80.463 15.6024C80.4958 15.9467 80.5663 16.279 80.6249 16.6164C80.7144 17.1329 80.9089 17.5926 81.4685 17.6856C82.028 17.7785 82.3499 17.3412 82.6099 16.9229C83.1515 16.1039 83.4532 15.1498 83.481 14.1683L83.5637 7.62613C83.5757 6.66546 83.7358 6.5415 84.6982 6.72055C85.9929 6.95986 86.0377 7.01323 86.0394 8.32683V11.6237C86.5352 10.7629 86.6609 9.99335 86.9312 9.29265C87.1378 8.75895 87.3392 8.22353 87.5561 7.69327C87.8333 7.02012 88.1604 6.46575 89.0746 6.6603C90.2109 6.90993 90.7756 7.38165 90.8272 8.33543C90.9012 9.65247 90.9305 10.973 90.9994 12.2952C91.0166 12.6498 90.915 13.0441 91.2714 13.3746C91.6334 11.4513 92.1811 9.56763 92.9069 7.75008C93.1875 7.01495 93.5542 6.48986 94.4856 6.69473C95.8233 6.98913 96.493 7.55554 96.4741 8.55064C96.4311 10.7302 96.2624 12.9063 96.4621 15.0928C96.4928 15.7518 96.6617 16.397 96.9579 16.9866C97.4003 17.7854 98.0752 17.7768 98.5297 16.9745C98.8293 16.446 98.9326 15.8469 99.0789 15.265C99.1547 14.9585 99.2167 14.5763 99.635 14.6452C100.053 14.714 100.007 15.1152 99.9879 15.4165C99.9461 16.3065 99.7073 17.1761 99.289 17.9627C98.4006 19.5707 96.4087 19.6844 95.2139 18.1883C94.3858 17.1553 94.2085 15.9002 94.1258 14.6314C94.0742 13.8291 94.0432 13.0268 94.026 12.2211C94.0087 11.4154 94.026 10.6252 94.026 9.68174C93.4905 10.4461 93.2891 11.2312 93.0326 11.9904C92.4782 13.6277 92.2028 15.32 92.0306 17.0331C91.991 17.4342 92.2234 17.9868 91.6674 18.1538C91.1113 18.3208 90.4725 18.3363 89.9595 17.8853C89.5257 17.5031 89.3604 16.9917 89.2709 16.4477C88.9497 14.6119 88.7725 12.7538 88.7406 10.8903C88.7406 10.546 88.7027 10.2206 88.6752 9.77643C88.1535 10.0725 88.0692 10.515 87.897 10.8593C86.8881 13.0647 86.5662 15.4061 86.5438 17.8078C86.5318 19.0663 86.4267 19.1851 85.4764 19.2247C84.0836 19.2781 83.6773 18.9699 83.5826 17.794C83.567 17.714 83.544 17.6356 83.5137 17.5599C81.2756 19.9701 79.6332 19.7653 78.3489 16.8385C77.5793 18.0316 76.6445 18.9837 75.2379 19.1937C73.7642 19.4141 72.714 18.691 71.9668 17.4858C71.6501 17.5186 71.6225 17.794 71.5037 17.9645C70.3072 19.5862 68.4134 19.6465 67.117 18.0936C66.449 17.2947 66.1719 16.3427 66.06 15.3287C65.8943 13.6998 66.0137 12.0546 66.4129 10.4668C66.5627 9.85046 66.499 9.58533 65.7242 9.57156C64.8307 9.55606 64.3986 9.78504 64.068 10.6872C63.1764 13.1132 61.8691 15.3654 60.2047 17.343C59.8318 17.7745 59.6433 18.3353 59.6796 18.9045C59.7141 21.1064 59.8811 23.3204 59.1442 25.4638C58.323 27.8552 55.9058 29.0104 53.7142 28.0463C52.3369 27.4351 51.712 26.1181 52.0735 24.6547C52.2946 23.85 52.7028 23.1091 53.2649 22.4923C54.3306 21.2459 55.5564 20.1612 56.777 19.0749C57.2694 18.6376 57.488 18.2141 57.2057 17.4652C56.3638 18.4482 55.4083 19.1868 54.0981 19.2281C52.7088 19.2694 51.8015 18.4982 51.0612 17.2603C50.4035 18.3983 49.6288 19.3366 48.2532 19.2161C46.9259 19.099 46.1666 18.252 45.781 16.8282C44.7979 18.252 43.6755 19.3572 41.9142 19.2161C40.0893 19.0697 39.3542 17.6942 38.7792 16.1068C38.3212 16.8678 37.9993 17.6064 37.4518 18.2038C36.0521 19.7291 34.241 19.538 33.2063 17.7286C32.8339 17.0485 32.5927 16.3045 32.4952 15.5353C32.4625 15.3183 32.4952 15.0756 32.268 14.9051C31.8152 15.6196 31.4158 16.3461 30.9268 17.0038C29.1209 19.4278 26.3095 19.7584 23.8338 18.734C22.9213 18.357 22.8438 17.9972 23.3276 17.1278C23.8114 16.2583 24.1884 16.1723 24.9666 16.6939C24.9907 16.7094 25.0114 16.7301 25.0355 16.7456C25.7121 17.176 26.3801 17.7286 27.2099 17.0761C27.8245 16.594 27.9175 15.4612 27.4371 14.5229C26.9379 13.5519 26.0598 12.9184 25.3006 12.185C24.9167 11.8165 24.8271 12.2315 24.698 12.4467C24.0094 13.5743 23.3431 14.7072 22.67 15.84C22.0967 16.8058 21.4648 17.7338 20.5954 18.4568C19.9739 18.9819 19.287 19.4519 18.4089 19.1455C17.5309 18.839 17.3347 18.0161 17.1849 17.2207C16.8715 15.5697 17.0127 13.9066 17.0644 12.2435C17.1022 11.1124 17.0644 9.97958 17.0644 8.76239C16.5479 9.14632 16.2328 9.64042 15.9229 10.1397C14.3735 12.6395 13.5832 15.4096 13.0668 18.2726C12.9841 18.7306 13.0151 19.2212 12.3523 19.235C11.6895 19.2488 10.9974 19.2901 10.672 18.5205C10.5137 18.118 10.4387 17.6875 10.4516 17.2551C10.4619 13.9841 10.4826 10.713 10.4723 7.44191C10.4723 6.72916 10.746 6.53806 11.4209 6.66202C12.7121 6.8996 12.8343 7.02184 12.8343 8.30789C12.8343 9.81775 12.8343 11.3293 12.9807 12.8753C13.282 12.0903 13.5798 11.3052 13.8828 10.5219C14.2908 9.47342 14.7763 8.45595 15.5442 7.62957C16.8681 6.19202 17.9803 6.43476 19.3799 7.53316C19.8327 7.88781 19.8155 8.42668 19.8017 8.95694C19.7518 10.9936 19.7208 13.0303 19.6864 15.0652C19.6815 15.2665 19.6913 15.4679 19.7157 15.6678C19.7656 16.05 19.6606 16.5613 20.1478 16.687C20.6075 16.8058 20.845 16.3582 21.0843 16.05C21.3608 15.6841 21.6149 15.3017 21.8453 14.9051C22.3136 14.1166 22.7629 13.3178 23.2226 12.5224C23.6823 11.727 24.0834 11.0556 23.5239 9.97958C22.7423 8.45767 24.3744 6.35385 26.1063 6.36418C27.1307 6.37451 27.5714 6.93403 27.3459 7.92397C27.1967 8.60091 26.8841 9.23103 26.4351 9.75921C26.034 10.2292 26.1855 10.4479 26.6073 10.744C27.1531 11.1141 27.6695 11.5256 28.186 11.9336C29.8732 13.2627 30.0695 13.6311 30.2692 15.8933C31.402 14.7192 32.1957 13.4934 32.2645 11.9526C32.342 10.2068 32.2646 8.4525 32.3007 6.70334C32.3128 6.12143 32.1027 5.94927 31.557 5.98542C31.0715 6.01813 30.5825 5.97509 30.0936 5.97509C29.6046 5.97509 29.0916 6.01641 29.1915 5.30366C29.2758 4.70798 29.2345 3.95907 30.1556 3.96424C30.7005 3.96332 31.245 3.99609 31.7859 4.06237C32.3024 4.12607 32.5021 3.98146 32.4935 3.42881C32.4815 2.568 32.5624 1.70719 32.5917 0.846384C32.614 0.192168 32.9635 -0.00409678 33.5609 0.112973C33.616 0.123303 33.6746 0.128468 33.7331 0.138798C35.317 0.421143 35.4013 0.520998 35.3755 2.10145C35.3428 4.22592 35.3428 4.2242 37.4518 4.27241C37.7395 4.26376 38.0274 4.27873 38.3126 4.31717C38.7034 4.38948 39.2629 4.31717 39.1648 4.99377C39.0839 5.55157 38.9599 6.05256 38.1835 6.01125C37.407 5.96993 36.634 6.04223 35.861 6.05601C35.5064 6.05601 35.2498 6.14553 35.2412 6.57249C35.1879 9.58189 34.8435 12.5982 35.1947 15.5972C35.2705 16.2394 35.3187 17.0606 36.0556 17.2328C36.8389 17.4153 37.2142 16.6543 37.6291 16.1154C38.6104 14.8449 38.4813 13.3006 38.6621 11.8407C38.8463 10.4272 39.213 9.08606 40.0583 7.9188C41.4563 5.97853 43.3036 5.85286 45.2232 7.61752C45.4659 6.53117 46.22 6.79286 46.9448 6.92887C47.8056 7.10103 47.9657 7.63129 47.9158 8.4439C47.7591 10.9902 47.6145 13.5416 47.9416 16.0879C47.9481 16.1739 47.959 16.2595 47.9743 16.3444C48.1121 16.9074 48.236 17.5409 48.9178 17.6442C49.6564 17.7579 49.9508 17.1536 50.2193 16.6113C50.4749 16.0999 50.5681 15.5226 50.4862 14.9568C50.1891 12.8129 50.5286 10.6289 51.4623 8.67631C52.466 6.59143 54.7506 5.28816 57.0438 7.55037C57.4054 6.54495 58.1405 6.81524 58.886 6.9633C59.7382 7.13546 59.7347 7.6795 59.721 8.37331C59.6693 10.7543 59.6796 13.1353 59.6693 15.5163C59.6888 15.6458 59.7182 15.7735 59.7571 15.8985C61.0494 14.1251 62.009 12.1319 62.5892 10.0157C62.689 9.64042 62.4273 9.44416 62.2449 9.1928C61.6268 8.34748 61.8799 6.93403 62.7613 6.37279C63.2675 6.05084 63.8287 5.92861 64.3917 6.24022C64.9185 6.5329 65.0287 7.03561 64.9426 7.5762C64.8652 8.07203 65.0666 8.09268 65.4677 7.99972C66.0514 7.85682 66.647 7.7673 67.2358 7.65539C68.7853 7.34034 69.4929 8.0617 69.1537 9.59394C68.7061 11.6082 68.1999 13.6174 68.5907 15.7109C68.6574 16.164 68.7982 16.6032 69.0074 17.0107C69.5101 17.9059 70.3141 17.9386 70.9012 17.083C71.2902 16.52 71.3832 15.9157 71.2954 15.2116C71.0131 12.9614 71.1233 10.7457 72.2165 8.68148C72.6934 7.77418 73.3028 6.97191 74.2962 6.59488C75.6907 6.05773 76.8184 6.53462 77.8651 7.75008ZM77.9116 12.0645C77.9426 11.3408 77.856 10.6169 77.6551 9.92105C77.4141 9.1532 77.0749 8.44217 76.1401 8.40258C75.2052 8.36298 74.7628 8.98793 74.4288 9.72478C73.8796 10.9299 73.8417 12.2211 73.8107 13.502C73.7831 14.6452 73.8417 15.7987 74.4184 16.8351C74.9349 17.7561 75.7802 17.868 76.5395 17.1329C76.8594 16.8046 77.109 16.4145 77.2729 15.9863C77.779 14.8036 77.9116 13.5606 77.9116 12.0645ZM41.217 13.6139C41.229 14.1786 41.1636 14.9585 41.3891 15.7091C41.6353 16.5217 41.7851 17.5168 42.8577 17.5788C43.9303 17.6408 44.3589 16.7576 44.6912 15.9209C45.416 14.0891 45.4091 12.1833 45.1647 10.2671C45.1127 10.0151 45.0312 9.77005 44.9219 9.53712C44.6929 8.94144 44.3142 8.49382 43.6445 8.41118C42.93 8.32166 42.4393 8.71591 42.095 9.27199C41.3031 10.5305 41.229 11.9594 41.2187 13.6019L41.217 13.6139ZM57.1316 12.2108C57.123 11.2691 57.1867 10.317 56.8045 9.41661C56.3345 8.30272 55.2551 8.06514 54.3805 8.88291C54.0834 9.15635 53.854 9.4953 53.7108 9.87284C52.9127 11.9183 52.811 14.1699 53.4215 16.279C53.6092 16.9401 53.9191 17.5478 54.7042 17.6012C55.4892 17.6546 55.8921 17.1157 56.2536 16.539C56.3934 16.2901 56.5087 16.0284 56.5979 15.7573C57.0079 14.6177 57.1898 13.4086 57.1334 12.1987L57.1316 12.2108ZM57.3847 20.4746C56.4399 21.2968 55.5983 22.2304 54.878 23.255C54.3874 23.9316 54.0052 24.6616 53.895 25.5103C53.802 26.2231 53.9449 26.8583 54.6594 27.151C55.3739 27.4437 56.0074 27.2027 56.505 26.6345C56.7723 26.2953 56.9557 25.8977 57.0404 25.4742C57.4484 23.8731 57.5018 22.2565 57.3864 20.4642L57.3847 20.4746Z" fill="black"/>
<path d="M7.99664 9.7799C7.94154 11.7253 8.14814 14.5126 7.83825 17.2827C7.66609 18.8701 7.09623 20.287 5.67761 21.2046C5.39355 21.3888 5.04922 21.6642 4.73417 21.4559C4.36402 21.2115 4.66014 20.8379 4.75138 20.5263C5.08587 19.3416 5.25277 18.116 5.24721 16.885C5.28508 12.1247 5.29025 7.36619 5.29886 2.60591C5.29886 2.36488 5.43486 2.02056 5.16457 1.90177C4.89428 1.78297 4.74277 2.1118 4.57061 2.28569C2.9213 4.03313 1.63353 8.24766 3.3276 10.6614C3.47394 10.8714 3.63921 11.1279 3.42401 11.3655C3.20881 11.6031 2.94368 11.4482 2.70438 11.3655C0.982755 10.7457 -0.107031 8.81751 0.294106 6.81699C0.855355 4.00731 2.3962 1.84323 4.88911 0.381575C5.16152 0.220941 5.46509 0.120335 5.77951 0.086488C6.09393 0.0526408 6.41196 0.0863329 6.71231 0.18531C7.76766 0.495202 7.99147 0.775826 7.99491 1.88971C8.00352 4.24317 7.99664 6.5949 7.99664 9.7799Z" fill="black"/>
</svg>
