<svg width="97" height="26" viewBox="0 0 97 26" fill="none" xmlns="http://www.w3.org/2000/svg">
<path d="M96.999 12.8404V23.7339C97.0145 24.1746 96.8709 24.6061 96.5945 24.9499C96.3181 25.2936 95.9272 25.5267 95.4932 25.6066C95.3361 25.6355 95.1764 25.6476 95.0167 25.6426H73.4546C72.4486 25.6426 71.6947 25.0628 71.504 24.1508C71.4782 23.9934 71.4683 23.8339 71.4744 23.6746C71.4744 16.4405 71.4744 9.20501 71.4744 1.96808C71.4687 1.7097 71.5151 1.45281 71.6109 1.21272C71.7066 0.97264 71.8498 0.754273 72.0318 0.570636C72.2138 0.386999 72.431 0.241851 72.6703 0.143839C72.9097 0.0458278 73.1663 -0.00304054 73.425 0.000146419C80.6257 0.0100214 87.8329 0.0100214 95.0464 0.000146419C96.0693 0.000146419 96.8169 0.61592 96.98 1.57661C96.997 1.7092 97.0034 1.84294 96.999 1.97655V12.8404ZM85.1982 11.465C85.1982 10.9889 85.1982 10.5127 85.1982 10.0387C85.1982 9.92236 85.1728 9.88639 85.0521 9.88639C83.8633 9.88639 82.6758 9.88639 81.4898 9.88639C81.35 9.88639 81.3373 9.94352 81.3416 10.0578C81.3522 10.4196 81.3585 10.7836 81.3606 11.1454C81.3691 14.5142 81.3599 17.8837 81.3331 21.2539C81.3331 21.4337 81.3839 21.4655 81.5449 21.4655C82.6801 21.4655 83.8174 21.4655 84.9526 21.4655C85.1432 21.4655 85.1919 21.4253 85.1919 21.2285C85.1919 19.0955 85.1919 16.9625 85.1919 14.8274C85.1842 14.4749 85.264 14.1261 85.424 13.8119C85.584 13.4977 85.8193 13.2279 86.1089 13.0266C86.3566 12.831 86.6497 12.7009 86.9611 12.6484C87.2725 12.5959 87.5921 12.6227 87.8903 12.7262C88.1886 12.8298 88.4559 13.0068 88.6676 13.2409C88.8793 13.475 89.0285 13.7586 89.1015 14.0656C89.209 14.4858 89.2589 14.9186 89.2497 15.3522C89.2497 17.3272 89.2497 19.3022 89.2497 21.2771C89.2497 21.4232 89.2836 21.4676 89.4361 21.4655C90.5967 21.4655 91.758 21.4655 92.92 21.4655C93.0852 21.4655 93.1148 21.4147 93.1148 21.2539C93.1148 19.1378 93.1148 17.0175 93.1148 14.893C93.1217 14.2872 93.0613 13.6826 92.9348 13.0901C92.7712 12.2351 92.368 11.4441 91.7721 10.809C90.9652 9.98161 89.9507 9.64515 88.8198 9.6113C87.9607 9.55557 87.1066 9.7782 86.3842 10.2461C85.9236 10.5835 85.5227 10.9954 85.1982 11.465ZM75.3543 15.6971C75.3543 17.5635 75.3543 19.4298 75.3543 21.2962C75.3543 21.4337 75.3819 21.4782 75.5301 21.4761C76.6992 21.4761 77.8676 21.4761 79.0352 21.4761C79.194 21.4761 79.2195 21.4253 79.2195 21.2814C79.2195 17.5515 79.2195 13.8194 79.2195 10.0853C79.2195 9.93717 79.1856 9.89062 79.031 9.89273C77.8746 9.89273 76.719 9.89273 75.564 9.89273C75.3988 9.89273 75.3522 9.92871 75.3522 10.1043C75.3565 11.958 75.3543 13.8244 75.3543 15.6907V15.6971ZM77.2753 8.31838C77.4989 8.31604 77.7214 8.28691 77.9381 8.23163C78.3299 8.14494 78.6852 7.93942 78.9555 7.64321C79.2258 7.34699 79.3979 6.97456 79.4482 6.57687C79.5042 6.17305 79.4334 5.76181 79.2457 5.39987C79.0579 5.03792 78.7624 4.74309 78.3998 4.55603C77.9379 4.33933 77.4216 4.26563 76.9173 4.34442C76.6171 4.37358 76.3275 4.47074 76.0705 4.62849C75.8136 4.78625 75.5959 5.00046 75.4342 5.25485C75.2725 5.50924 75.171 5.79711 75.1373 6.09658C75.1037 6.39606 75.1388 6.69926 75.24 6.98315C75.528 7.81264 76.2989 8.31204 77.2753 8.31204V8.31838Z" fill="#0176AF"/>
<path d="M63.7483 10.4767V10.2947C63.7483 8.48551 63.7483 6.67627 63.7483 4.86704C63.7483 4.7041 63.7906 4.67236 63.9473 4.67236C65.1009 4.68083 66.2558 4.68083 67.4122 4.67236C67.5795 4.67236 67.6049 4.72103 67.6049 4.88397C67.6049 9.38131 67.6049 13.8786 67.6049 18.376C67.6049 19.3494 67.6282 20.3249 67.6981 21.2961C67.7087 21.4485 67.6854 21.5077 67.5138 21.5077C66.493 21.5077 65.4722 21.5077 64.4493 21.5077C64.3074 21.5077 64.265 21.4654 64.2566 21.3279C64.2248 20.8454 64.1803 20.363 64.138 19.8805C64.138 19.8361 64.1613 19.7705 64.0871 19.7557C64.013 19.7408 64.0172 19.8022 63.9939 19.8382C63.0176 21.3194 61.5753 21.8463 59.8895 21.7426C57.7229 21.6199 56.2404 20.437 55.442 18.4797C55.0045 17.4634 54.7966 16.3633 54.8332 15.2576C54.8698 14.152 55.15 13.0679 55.6537 12.0828C56.1483 11.0814 56.9474 10.262 57.9365 9.74198C58.9256 9.222 60.0541 9.02809 61.1602 9.18804C61.8099 9.25798 62.435 9.4751 62.988 9.82286C63.2632 10.0141 63.518 10.2332 63.7483 10.4767ZM63.7483 15.4241C63.7483 15.0728 63.7483 14.7215 63.7483 14.366C63.7594 13.9396 63.6508 13.5186 63.4348 13.1506C63.2189 12.7826 62.9041 12.4824 62.5263 12.2838C61.5796 11.7654 59.8683 11.8606 59.1377 13.5704C58.8247 14.3335 58.7111 15.1636 58.8073 15.9827C58.8409 16.6349 59.0615 17.2636 59.4426 17.7941C59.7157 18.1768 60.0984 18.468 60.5403 18.6293C60.9823 18.7906 61.4627 18.8144 61.9184 18.6976C62.3494 18.6215 62.7469 18.4162 63.0583 18.1089C63.3696 17.8016 63.58 17.4069 63.6614 16.9773C63.7512 16.4647 63.7804 15.9434 63.7483 15.4241Z" fill="#0176AF"/>
<path d="M35.0552 14.2623C35.4957 13.6275 35.9024 13.0307 36.326 12.4361C37.0164 11.467 37.7153 10.502 38.4078 9.53501C38.4274 9.49574 38.4576 9.4628 38.4951 9.43996C38.5326 9.41712 38.5757 9.40532 38.6196 9.40593C40.0894 9.40593 41.5571 9.40593 43.0248 9.40593C43.0481 9.40593 43.0714 9.40593 43.1201 9.41862C43.0608 9.48845 43.0163 9.54559 42.9676 9.60061C41.5853 11.1242 40.2003 12.6477 38.8123 14.1713C38.717 14.2771 38.7297 14.3342 38.8123 14.4379C40.4262 16.719 42.0379 19.0016 43.6474 21.2855C43.6877 21.3405 43.7258 21.3976 43.766 21.459C43.6998 21.4893 43.6258 21.4982 43.5543 21.4844C42.1247 21.4844 40.6951 21.4844 39.2656 21.4844C39.198 21.491 39.13 21.477 39.0706 21.4441C39.0112 21.4112 38.9632 21.3611 38.9331 21.3003C38.0054 19.7598 37.0672 18.2236 36.1311 16.6852C36.0993 16.6323 36.0633 16.5836 36.021 16.5201C35.7118 16.9074 35.4174 17.2819 35.1166 17.6501C35.0704 17.7191 35.0522 17.8031 35.0658 17.885C35.0658 19.0192 35.0658 20.1534 35.0658 21.2876C35.0658 21.4484 35.0192 21.4844 34.854 21.4844C33.6934 21.4844 32.5321 21.4844 31.3701 21.4844C31.2303 21.4844 31.188 21.4548 31.188 21.3067C31.188 15.8148 31.188 10.3236 31.188 4.83312C31.188 4.69769 31.224 4.66595 31.3574 4.66807C32.5244 4.66807 33.6871 4.66807 34.8604 4.66807C35.0235 4.66807 35.0573 4.7125 35.0573 4.87967C35.0573 7.93103 35.0573 10.9824 35.0573 14.0338L35.0552 14.2623Z" fill="#0176AF"/>
<path d="M50.1047 16.6325C48.834 16.6325 47.5633 16.6325 46.2925 16.6325C46.1337 16.6325 46.0808 16.66 46.121 16.8293C46.1804 17.1726 46.3201 17.497 46.5288 17.7761C46.7375 18.0552 47.0092 18.2811 47.3218 18.4353C47.9519 18.7648 48.6524 18.9369 49.3635 18.9369C50.5445 18.9827 51.7248 18.8274 52.8537 18.4777C52.9956 18.4311 53.0337 18.4586 53.0655 18.5983C53.2053 19.3347 53.3493 20.0795 53.506 20.8053C53.5357 20.9471 53.4933 20.9916 53.3726 21.036C52.5047 21.3551 51.5993 21.5613 50.6787 21.6496C49.7211 21.7618 48.7538 21.7618 47.7962 21.6496C46.3561 21.4634 45.0536 20.9789 44.0137 19.9251C43.2288 19.1133 42.7153 18.0782 42.5439 16.9626C42.2527 15.47 42.4433 13.9237 43.0882 12.5463C44.0095 10.6165 45.5365 9.48441 47.6628 9.18393C48.9187 9.00829 50.1492 9.1014 51.3056 9.66216C52.6292 10.297 53.4234 11.3952 53.8661 12.7664C54.2268 13.9589 54.3165 15.2168 54.1287 16.4484C54.1075 16.6198 54.0397 16.66 53.8788 16.66C52.6208 16.66 51.3649 16.66 50.1068 16.66L50.1047 16.6325ZM48.3448 14.0488H50.4859C50.5643 14.0488 50.6533 14.0763 50.6427 13.9345C50.6283 13.3652 50.4439 12.8133 50.1132 12.3496C49.5689 11.6386 48.5057 11.3867 47.5993 11.774C46.6526 12.1782 46.2587 12.9844 46.0892 13.9387C46.0659 14.0699 46.1464 14.0488 46.2205 14.0488H48.3448Z" fill="#0176AF"/>
<path d="M21.6953 11.5178C21.8647 11.3062 22.0045 11.0946 22.1633 10.9232C22.7699 10.208 23.6329 9.75903 24.5671 9.67264C25.5989 9.52176 26.6513 9.72624 27.5512 10.2524C28.5551 10.8682 29.1036 11.8035 29.3938 12.9123C29.5545 13.5557 29.6314 14.2172 29.6225 14.8803C29.6225 17.0203 29.6225 19.1604 29.6225 21.3004C29.6225 21.4464 29.5886 21.4908 29.434 21.4908C28.2664 21.4908 27.0987 21.4908 25.931 21.4908C25.7807 21.4908 25.7553 21.4464 25.7553 21.3089C25.7553 19.2464 25.7553 17.1825 25.7553 15.1173C25.7564 14.6843 25.6811 14.2545 25.5329 13.8476C25.1856 12.9102 24.4125 12.6055 23.5484 12.688C22.5954 12.779 21.6932 13.691 21.6974 14.8718C21.6974 16.9879 21.6974 19.1251 21.6974 21.2538C21.6974 21.4379 21.6656 21.4972 21.4623 21.4951C20.3271 21.4824 19.192 21.4951 18.0547 21.4951C17.8831 21.4951 17.8429 21.4591 17.8429 21.2835C17.8697 17.6594 17.8754 14.0353 17.8598 10.4111C17.8598 10.2524 17.7984 10.0387 17.8789 9.95196C17.9594 9.86521 18.1902 9.91811 18.3533 9.91811C19.2597 9.91811 20.1662 9.91811 21.0726 9.91811C21.2844 9.91811 21.5513 9.84616 21.6614 9.94985C21.7715 10.0535 21.6953 10.3456 21.6995 10.5529C21.6995 10.8576 21.6953 11.1687 21.6953 11.5178Z" fill="#0176AF"/>
<path d="M0 13.0669C0 10.3386 0 7.61165 0 4.88617C0 4.71053 0.0465933 4.67456 0.211788 4.67456C1.35968 4.68302 2.50827 4.68302 3.65757 4.67456C3.82488 4.67456 3.85242 4.72323 3.8503 4.88617C3.8503 9.17895 3.8503 13.4724 3.8503 17.7666C3.8503 17.9528 3.88418 18.0079 4.08538 18.0079C6.20326 18.0079 8.33596 18.0079 10.4623 18.0079C10.619 18.0079 10.6635 18.0438 10.6614 18.2047C10.6614 19.25 10.6614 20.2946 10.6614 21.3385C10.6614 21.4676 10.636 21.5121 10.4962 21.5121C7.05535 21.5121 3.61451 21.5121 0.173666 21.5121C-0.00847157 21.5121 0.00211716 21.4274 0.00423504 21.3005L0 13.0669Z" fill="#0176AF"/>
<path d="M12.1929 15.6907C12.1929 13.8243 12.1929 11.9579 12.1929 10.0916C12.1929 9.94555 12.2268 9.90323 12.3771 9.90535C13.5462 9.90535 14.7146 9.90535 15.8822 9.90535C16.0283 9.90535 16.0601 9.94344 16.0601 10.0852C16.0601 13.8236 16.0601 17.562 16.0601 21.3003C16.0601 21.4527 16.0199 21.4908 15.8695 21.4908C14.7089 21.4908 13.5398 21.4908 12.3856 21.4908C12.2162 21.4908 12.1929 21.44 12.1929 21.2792C12.1957 19.4185 12.1957 17.5556 12.1929 15.6907Z" fill="#0176AF"/>
<path d="M14.118 8.32046C13.0887 8.32046 12.2712 7.75758 12.0403 6.8773C11.9556 6.5869 11.9384 6.281 11.9901 5.98295C12.0418 5.6849 12.161 5.4026 12.3385 5.1576C12.5161 4.91261 12.7474 4.7114 13.0146 4.56936C13.2819 4.42732 13.5782 4.34819 13.8808 4.33803C14.4109 4.27548 14.9468 4.38927 15.4056 4.66179C15.7363 4.88091 15.9936 5.19392 16.1446 5.5605C16.2956 5.92708 16.3333 6.33044 16.2528 6.7186C16.1776 7.1123 15.9823 7.47311 15.6937 7.75156C15.4052 8.03001 15.0375 8.21247 14.6411 8.2739C14.4684 8.30453 14.2934 8.3201 14.118 8.32046Z" fill="#0176AF"/>
</svg>
