<svg width="28" height="20" viewBox="0 0 28 20" fill="none" xmlns="http://www.w3.org/2000/svg">
<path d="M0.801875 12H17.1981C17.3035 12.0001 17.4078 11.9794 17.5051 11.9391C17.6024 11.8989 17.6908 11.8398 17.7653 11.7653C17.8398 11.6908 17.8989 11.6024 17.9391 11.5051C17.9794 11.4078 18.0001 11.3035 18 11.1981V8.80187C18.0001 8.69655 17.9794 8.59224 17.9391 8.49491C17.8989 8.39759 17.8398 8.30916 17.7653 8.23468C17.6908 8.1602 17.6024 8.10114 17.5051 8.06087C17.4078 8.0206 17.3035 7.99992 17.1981 8H0.801875C0.696548 7.99992 0.592239 8.0206 0.494914 8.06087C0.397589 8.10114 0.309158 8.1602 0.234681 8.23468C0.160203 8.30916 0.101141 8.39759 0.0608719 8.49491C0.0206031 8.59224 -8.19463e-05 8.69655 2.43972e-07 8.80187V11.1981C-8.19463e-05 11.3035 0.0206031 11.4078 0.0608719 11.5051C0.101141 11.6024 0.160203 11.6908 0.234681 11.7653C0.309158 11.8398 0.397589 11.8989 0.494914 11.9391C0.592239 11.9794 0.696548 12.0001 0.801875 12ZM27 0H1C0.734784 0 0.48043 0.105357 0.292893 0.292894C0.105357 0.48043 2.43972e-07 0.734783 2.43972e-07 1V3C2.43972e-07 3.26522 0.105357 3.51957 0.292893 3.70711C0.48043 3.89464 0.734784 4 1 4H27C27.2652 4 27.5196 3.89464 27.7071 3.70711C27.8946 3.51957 28 3.26522 28 3V1C28 0.734783 27.8946 0.48043 27.7071 0.292894C27.5196 0.105357 27.2652 0 27 0ZM27 16H1C0.734784 16 0.48043 16.1054 0.292893 16.2929C0.105357 16.4804 2.43972e-07 16.7348 2.43972e-07 17V19C2.43972e-07 19.2652 0.105357 19.5196 0.292893 19.7071C0.48043 19.8946 0.734784 20 1 20H27C27.2652 20 27.5196 19.8946 27.7071 19.7071C27.8946 19.5196 28 19.2652 28 19V17C28 16.7348 27.8946 16.4804 27.7071 16.2929C27.5196 16.1054 27.2652 16 27 16Z" fill="#B7B7B7"/>
</svg>
