<?xml version="1.0" encoding="utf-8"?>
<!-- Generator: Adobe Illustrator 25.2.1, SVG Export Plug-In . SVG Version: 6.00 Build 0)  -->
<svg version="1.1" id="Camada_1" xmlns="http://www.w3.org/2000/svg" xmlns:xlink="http://www.w3.org/1999/xlink" x="0px" y="0px"
	 viewBox="0 0 30 30" style="enable-background:new 0 0 30 30;" xml:space="preserve">
<style type="text/css">
	.st0{fill:url(#SVGID_1_);}
</style>
<linearGradient id="SVGID_1_" gradientUnits="userSpaceOnUse" x1="2.4561" y1="14.9235" x2="27.4191" y2="15.0717">
	<stop  offset="0" style="stop-color:#6FD4FF"/>
	<stop  offset="1" style="stop-color:#B5EEFF"/>
</linearGradient>
<path class="st0" d="M12.95,4.61l1.36-1.22c0.58-0.52,1.51-0.52,2.07,0l11.9,10.68c0.58,0.51,0.58,1.35,0,1.86l-11.9,10.68
	c-0.58,0.52-1.51,0.52-2.07,0l-1.36-1.22c-0.58-0.52-0.57-1.37,0.02-1.88l7.38-6.31H2.76c-0.81,0-1.47-0.59-1.47-1.32v-1.76
	c0-0.73,0.65-1.32,1.47-1.32h17.59l-7.38-6.31C12.37,5.98,12.36,5.13,12.95,4.61"/>
</svg>
