<svg width="30" height="47" viewBox="0 0 30 47" fill="none" xmlns="http://www.w3.org/2000/svg">
<path d="M29.8703 12.8241C29.8333 5.70143 23.0968 -0.0318072 14.8613 0.000132808C6.60727 0.0480428 -0.0551759 5.84516 0.000344497 12.9518L0.129891 34.176C0.166905 41.2986 6.88487 47.0318 15.1389 46.9999C23.3929 46.9679 30.0369 41.1708 29.9998 34.0482L29.8703 12.8241Z" fill="url(#paint0_linear_5_201)"/>
<path d="M20.1178 29.5316L20.7362 30.2227C20.9908 30.5137 20.9908 30.9866 20.7362 31.2594L15.3165 37.2246C15.0619 37.5156 14.6254 37.5156 14.3708 37.2246L9.02394 31.2048C8.76932 30.9138 8.76932 30.441 9.02394 30.1682L9.64228 29.4953C9.91508 29.2043 10.3334 29.2043 10.588 29.5134L13.7525 33.2417L13.807 24.3848C13.807 23.9665 14.1162 23.6392 14.4799 23.6573H15.3711C15.7348 23.6573 16.0258 23.9847 16.0258 24.403L15.9712 33.2599L19.1721 29.568C19.4267 29.2406 19.8632 29.2225 20.1178 29.5316Z" fill="#283D50"/>
<defs>
<linearGradient id="paint0_linear_5_201" x1="14.851" y1="0.00593971" x2="15.0597" y2="47.0132" gradientUnits="userSpaceOnUse">
<stop stop-color="#6FD4FF"/>
<stop offset="1" stop-color="#B5EEFF"/>
</linearGradient>
</defs>
</svg>
