<svg width="99" height="30" viewBox="0 0 99 30" fill="none" xmlns="http://www.w3.org/2000/svg">
<path d="M14.8463 0C6.64708 0 0 6.71585 0 15.0001C0 23.2847 6.64708 30 14.8463 30C23.0463 30 29.6927 23.2847 29.6927 15.0001C29.6927 6.71638 23.0463 0.000716487 14.8461 0.000716487L14.8463 0ZM21.6547 21.6344C21.3887 22.0751 20.8179 22.2148 20.3818 21.9443C16.896 19.7931 12.5079 19.3058 7.34008 20.4988C6.84209 20.6134 6.34569 20.2982 6.23223 19.7948C6.11824 19.2915 6.42902 18.79 6.92825 18.6753C12.5836 17.3699 17.4346 17.932 21.348 20.3483C21.7841 20.6188 21.9224 21.1938 21.6547 21.6344ZM23.4718 17.5501C23.1368 18.1003 22.4241 18.2741 21.8798 17.9356C17.8892 15.4572 11.806 14.7395 7.08585 16.1871C6.47369 16.374 5.82714 16.0254 5.64134 15.408C5.45697 14.7894 5.80214 14.1374 6.41324 13.9494C11.805 12.2964 18.5079 13.0971 23.0907 15.9425C23.6349 16.281 23.8069 17.0009 23.4718 17.5501ZM23.6278 13.297C18.843 10.4255 10.9485 10.1614 6.38009 11.5624C5.64649 11.7872 4.87069 11.3687 4.64838 10.6275C4.42606 9.88596 4.83984 9.10266 5.57398 8.87732C10.8182 7.2688 19.5361 7.57958 25.045 10.8839C25.7063 11.2795 25.9226 12.1406 25.5308 12.8064C25.1408 13.4731 24.2863 13.6929 23.6285 13.297H23.6278ZM40.3918 13.8473C37.8283 13.2296 37.3726 12.7962 37.3726 11.8853C37.3726 11.0248 38.174 10.4457 39.3671 10.4457C40.523 10.4457 41.6682 10.8855 42.8702 11.7907C42.9057 11.8182 42.9518 11.8291 42.9961 11.8219C43.0422 11.8151 43.0812 11.7902 43.1078 11.7528L44.3594 9.97015C44.4108 9.89671 44.3966 9.7955 44.3275 9.73944C42.8968 8.57998 41.2871 8.01628 39.4043 8.01628C36.6369 8.01628 34.7028 9.69448 34.7028 12.0956C34.7028 14.6705 36.371 15.5822 39.2536 16.286C41.7055 16.8569 42.1203 17.3351 42.1203 18.1899C42.1203 19.1375 41.2835 19.7268 39.9362 19.7268C38.4399 19.7268 37.2184 19.2163 35.8533 18.0233C35.8196 17.9929 35.7735 17.9803 35.731 17.9821C35.6849 17.9857 35.6441 18.0072 35.6158 18.0412L34.2117 19.7286C34.1532 19.8002 34.1603 19.9041 34.2276 19.965C35.8161 21.398 37.7698 22.1539 39.8794 22.1539C42.8613 22.1539 44.7884 20.5078 44.7884 17.9588C44.7937 15.8081 43.5191 14.6169 40.3971 13.8496L40.3918 13.8473ZM51.5358 11.293C50.2434 11.293 49.1833 11.8074 48.3075 12.8615V11.675C48.3075 11.5814 48.233 11.505 48.1409 11.505H45.845C45.7528 11.505 45.6784 11.5814 45.6784 11.675V24.8586C45.6784 24.9518 45.7528 25.0288 45.845 25.0288H48.1409C48.233 25.0288 48.3075 24.9518 48.3075 24.8586V20.6976C49.1833 21.6882 50.2434 22.1736 51.5358 22.1736C53.938 22.1736 56.3704 20.3053 56.3704 16.7338C56.3739 13.1616 53.9416 11.2928 51.5376 11.2928L51.5358 11.293ZM53.7005 16.7338C53.7005 18.5517 52.5925 19.8217 51.004 19.8217C49.435 19.8217 48.2508 18.4944 48.2508 16.7338C48.2508 14.973 49.435 13.6461 51.004 13.6461C52.5659 13.6459 53.7005 14.9444 53.7005 16.7338ZM62.6019 11.293C59.5083 11.293 57.0848 13.6997 57.0848 16.7727C57.0848 19.8128 59.4923 22.1933 62.5647 22.1933C65.6689 22.1933 68.0995 19.7948 68.0995 16.7338C68.0995 13.6832 65.6848 11.2933 62.6019 11.2933V11.293ZM62.6019 19.8396C60.9567 19.8396 59.7157 18.5034 59.7157 16.7329C59.7157 14.9544 60.9141 13.6638 62.5647 13.6638C64.2205 13.6638 65.4686 14.9996 65.4686 16.7718C65.4686 18.5499 64.263 19.8396 62.6019 19.8396ZM74.705 11.505H72.1788V8.89595C72.1788 8.80245 72.1043 8.72614 72.0121 8.72614H69.7163C69.6241 8.72614 69.5479 8.80245 69.5479 8.89595V11.505H68.4452C68.353 11.505 68.2785 11.5814 68.2785 11.675V13.6681C68.2785 13.7616 68.353 13.8381 68.4452 13.8381H69.5479V18.996C69.5479 21.0792 70.5743 22.136 72.6007 22.136C73.4233 22.136 74.1058 21.964 74.7494 21.595C74.8026 21.5664 74.8345 21.509 74.8345 21.4481V19.5494C74.8345 19.4921 74.8043 19.4366 74.7547 19.4061C74.705 19.3739 74.643 19.3721 74.5916 19.399C74.1501 19.6229 73.7229 19.7268 73.2442 19.7268C72.5085 19.7268 72.1788 19.3882 72.1788 18.6323V13.839H74.705C74.7972 13.839 74.8717 13.7627 74.8717 13.669V11.6761C74.8752 11.5824 74.8008 11.5061 74.7068 11.5061L74.705 11.505ZM83.5054 11.5153V11.1948C83.5054 10.2521 83.8635 9.83168 84.6648 9.83168C85.1435 9.83168 85.5282 9.92769 85.959 10.0728C86.0122 10.0896 86.0672 10.0812 86.1097 10.0491C86.154 10.0171 86.1788 9.96567 86.1788 9.91121V7.95699C86.1788 7.88229 86.1328 7.8162 86.0601 7.79416C85.6062 7.65749 85.0247 7.51724 84.1525 7.51724C82.034 7.51724 80.9117 8.72345 80.9117 11.0042V11.495H79.809C79.7169 11.495 79.6406 11.5713 79.6406 11.6648V13.6681C79.6406 13.7616 79.7169 13.8381 79.809 13.8381H80.9117V21.7921C80.9117 21.887 80.988 21.9622 81.0802 21.9622H83.3742C83.4682 21.9622 83.5426 21.887 83.5426 21.7921V13.8387H85.686L88.9693 21.7921C88.597 22.6268 88.23 22.7934 87.7301 22.7934C87.3259 22.7934 86.8986 22.6716 86.4643 22.4297C86.4235 22.4082 86.3739 22.4047 86.3313 22.4172C86.287 22.4333 86.2498 22.4656 86.232 22.5086L85.4538 24.2335C85.4165 24.3159 85.4484 24.4108 85.5264 24.4538C86.3384 24.8981 87.0706 25.0879 87.9765 25.0879C89.6713 25.0879 90.6092 24.289 91.4335 22.1431L95.4153 11.7474C95.4366 11.6951 95.4295 11.636 95.3976 11.5896C95.3675 11.5436 95.316 11.5158 95.2611 11.5158H92.8713C92.7986 11.5158 92.7348 11.5618 92.7118 11.6297L90.2635 18.6932L87.5829 11.6251C87.5581 11.5593 87.4961 11.5158 87.4269 11.5158H83.5054V11.5153ZM78.4032 11.505H76.1074C76.0152 11.505 75.9389 11.5814 75.9389 11.675V21.7921C75.9389 21.887 76.0152 21.9622 76.1074 21.9622H78.4032C78.4954 21.9622 78.5716 21.887 78.5716 21.7921V11.6758C78.5716 11.5821 78.4971 11.5058 78.4032 11.5058V11.505ZM77.2686 6.89819C76.3591 6.89819 75.6216 7.64191 75.6216 8.56063C75.6216 9.47989 76.3591 10.2245 77.2686 10.2245C78.178 10.2245 78.9138 9.47989 78.9138 8.56063C78.9138 7.64209 78.1763 6.89819 77.2686 6.89819ZM97.3761 14.7581C96.4684 14.7581 95.761 14.021 95.761 13.1259C95.761 12.2309 96.4773 11.4853 97.3849 11.4853C98.2926 11.4853 99 12.2223 99 13.1166C99 14.0117 98.2838 14.7581 97.3761 14.7581ZM97.3849 11.6476C96.557 11.6476 95.9312 12.3122 95.9312 13.1259C95.9312 13.9393 96.5535 14.5949 97.3761 14.5949C98.204 14.5949 98.8298 13.9309 98.8298 13.1166C98.8298 12.3032 98.2075 11.6476 97.3849 11.6476ZM97.7431 13.2845L98.2004 13.9307H97.814L97.4027 13.3378H97.0499V13.9307H96.7272V12.2176H97.4825C97.8778 12.2176 98.1366 12.4213 98.1366 12.7641C98.1384 13.045 97.9771 13.2166 97.7448 13.2845H97.7431ZM97.47 12.5115H97.0499V13.0534H97.47C97.6792 13.0534 97.8051 12.9497 97.8051 12.7822C97.8051 12.6059 97.6792 12.5115 97.47 12.5115Z" fill="#1CCC5B"/>
</svg>
