<svg width="103" height="29" viewBox="0 0 103 29" fill="none" xmlns="http://www.w3.org/2000/svg">
<path d="M18.4117 9.79594C18.4117 9.90642 18.4117 10.0721 18.4117 10.2379C18.4117 13.4234 18.4117 16.5905 18.4117 19.776C18.3933 24.14 15.5576 27.7674 11.2857 28.7434C8.28432 29.4246 5.57755 28.7433 3.22063 26.7731C0.918954 24.8397 -0.149025 22.2987 0.0166957 19.3157C0.25607 14.7676 3.69938 11.3795 7.69509 10.7903C8.50528 10.6614 9.33389 10.735 10.1441 10.7166C10.3466 10.7166 10.4571 10.7719 10.4571 11.0112C10.4571 12.5211 10.4571 14.0494 10.4387 15.5593C10.4387 15.5962 10.4203 15.633 10.4203 15.633C9.81264 15.633 9.22341 15.5778 8.65259 15.633C6.57187 15.8355 4.95149 17.6953 4.95149 19.8128C4.95149 21.8567 6.59029 23.6612 8.59735 23.9743C10.9359 24.3241 13.4401 22.5749 13.4401 19.6471C13.4401 13.8285 13.4401 8.00984 13.4401 2.1912C13.4401 1.47307 13.4401 0.75495 13.4401 0C15.0973 0 16.7177 0 18.3381 0C18.4301 0.607643 18.4854 1.19687 18.6327 1.74928C19.3692 4.34557 21.1001 5.96595 23.6595 6.70249C24.1199 6.83138 24.5986 6.84979 25.0589 6.94186C25.1694 6.96027 25.3536 7.10758 25.3536 7.18123C25.372 8.70955 25.372 10.2379 25.372 11.8214C24.1014 11.8951 22.9046 11.7109 21.7445 11.269C20.6213 10.8639 19.5533 10.2931 18.4117 9.79594Z" fill="black"/>
<path d="M81.5515 10.5692C83.3376 10.5139 84.9764 10.9374 86.3574 12.1159C88.4565 13.9204 89.2115 16.2221 88.4565 18.8552C87.72 21.4883 85.8602 23.0903 83.135 23.5138C81.4962 23.7716 79.8206 23.79 78.237 23.0351C75.5487 21.783 74.0756 19.0025 74.5175 16.0196C74.9226 13.276 77.2796 11.0111 80.1152 10.6244C80.594 10.5876 81.0727 10.606 81.5515 10.5692ZM77.9056 17.1244C77.9056 18.892 79.3603 20.3099 81.128 20.2915C82.8956 20.2731 84.3135 18.8552 84.3135 17.1244C84.3135 15.3751 82.8588 13.9388 81.0911 13.9388C79.3234 13.9388 77.9056 15.3751 77.9056 17.1244Z" fill="black"/>
<path d="M61.794 23.6429C60.9286 23.6429 60.1552 23.6429 59.3818 23.6429C58.8294 23.6429 58.2034 23.7902 57.7614 23.5692C57.3195 23.3483 57.0986 22.7222 56.7671 22.2803C55.8649 20.9914 54.9626 19.7024 54.0235 18.3767C53.6368 18.7265 53.2686 19.0395 52.9371 19.3894C52.8635 19.4815 52.8451 19.6472 52.8451 19.7945C52.8451 20.8993 52.8451 21.9857 52.8451 23.0905C52.8451 23.2378 52.8451 23.3667 52.8451 23.5324C51.5745 23.5324 50.3408 23.5324 49.0703 23.5324C49.0703 18.2478 49.0703 12.9815 49.0703 7.67847C50.3224 7.67847 51.5561 7.67847 52.8266 7.67847C52.8266 10.109 52.8266 12.5212 52.8266 15.0254C52.9924 14.8965 53.0844 14.8229 53.1765 14.7308C54.2445 13.6812 55.294 12.6501 56.3436 11.5821C56.5646 11.3612 56.7671 11.2875 57.0617 11.2875C58.277 11.3059 59.4923 11.2875 60.7076 11.2875C60.8549 11.2875 60.9838 11.2875 61.26 11.2875C59.6212 12.8895 58.0561 14.3994 56.4725 15.9277C58.2218 18.5056 59.9711 21.0282 61.794 23.6429Z" fill="black"/>
<path d="M90.0399 7.66016C91.292 7.66016 92.5441 7.66016 93.8146 7.66016C93.8146 10.1091 93.8146 12.5213 93.8146 14.9335C93.8515 14.9519 93.8883 14.9887 93.9435 15.0071C94.2382 14.6757 94.5328 14.3442 94.8458 14.0312C95.6744 13.1842 96.5214 12.3556 97.3684 11.527C97.4789 11.4165 97.6446 11.2876 97.7919 11.2876C99.2282 11.2692 100.646 11.2692 102.211 11.2692C100.572 12.8712 99.0072 14.3811 97.4237 15.9094C99.1914 18.4504 100.941 20.9731 102.727 23.5694C102.543 23.5878 102.451 23.6062 102.34 23.6062C101.235 23.6062 100.149 23.6062 99.0441 23.6062C98.7863 23.6062 98.6205 23.5325 98.4732 23.3116C97.4421 21.8201 96.4109 20.347 95.3614 18.8739C95.2509 18.7082 95.122 18.5425 94.9747 18.3399C94.6064 18.6714 94.2382 19.0028 93.8883 19.3343C93.8146 19.4263 93.7962 19.5921 93.7962 19.7394C93.7962 20.8442 93.7962 21.9306 93.7962 23.0354C93.7962 23.1827 93.7962 23.3116 93.7962 23.4773C92.5257 23.4773 91.292 23.4773 90.0215 23.4773C90.0399 18.2479 90.0399 12.9816 90.0399 7.66016Z" fill="black"/>
<path d="M34.7632 10.9561C33.4374 10.9561 32.1853 10.9561 30.8779 10.9561C30.8779 9.85125 30.8779 8.78327 30.8779 7.67847C34.8552 7.67847 38.8141 7.67847 42.8651 7.67847C42.7362 8.10198 42.6073 8.48866 42.4784 8.87534C42.2943 9.48298 42.0733 10.0722 41.9076 10.6983C41.8339 10.9745 41.705 11.0665 41.4288 11.0481C40.5266 11.0297 39.6059 11.0481 38.6484 11.0481C38.6484 15.2096 38.6484 19.3526 38.6484 23.514C37.341 23.514 36.0705 23.514 34.7632 23.514C34.7632 19.3526 34.7632 15.1911 34.7632 10.9561Z" fill="black"/>
<path d="M62.7329 10.9562C62.7329 9.83294 62.7329 8.76496 62.7329 7.66016C66.7286 7.66016 70.6875 7.66016 74.72 7.66016C74.3702 8.74655 74.0387 9.81453 73.6705 10.8825C73.6521 10.9562 73.4495 11.0298 73.3206 11.0298C72.5288 11.0482 71.7371 11.0298 70.9269 11.0298C70.7796 11.0298 70.6507 11.0482 70.4665 11.0482C70.4665 15.2097 70.4665 19.3527 70.4665 23.5141C69.1592 23.5141 67.8887 23.5141 66.5813 23.5141C66.5813 19.3159 66.5813 15.1544 66.5813 10.9562C65.2924 10.9562 64.0403 10.9562 62.7329 10.9562Z" fill="black"/>
<path d="M47.395 12.7605C47.395 16.3511 47.395 19.9233 47.395 23.5139C46.1429 23.5139 44.9092 23.5139 43.6387 23.5139C43.6387 19.9417 43.6387 16.3695 43.6387 12.7605C44.8724 12.7605 46.1061 12.7605 47.395 12.7605Z" fill="black"/>
<path d="M45.5349 7.6416C46.5845 7.6416 47.4131 8.47021 47.4131 9.50136C47.4131 10.5325 46.5477 11.3979 45.4981 11.3795C44.4485 11.3611 43.6015 10.5141 43.6199 9.46453C43.6383 8.45179 44.4854 7.6416 45.5349 7.6416Z" fill="black"/>
</svg>
