<svg width="100" height="23" viewBox="0 0 100 23" fill="none" xmlns="http://www.w3.org/2000/svg">
<path d="M14.9829 22.4007C13.6905 22.4007 11.4468 22.3538 9.20676 22.2708C7.87464 22.222 6.54431 22.1498 5.21941 22.0108C4.67783 21.9691 4.14019 21.8865 3.61111 21.7635C2.0714 21.361 1.08403 20.3863 0.652626 18.8574C0.431075 17.9821 0.289101 17.0886 0.228439 16.1877C0.0390306 14.1478 -0.0326883 12.0987 0.0136382 10.0506C0.0378803 8.45587 0.144521 6.8635 0.333132 5.27981C0.394427 4.73241 0.492116 4.18969 0.62555 3.65527C1.08403 1.90617 2.21219 0.884515 3.97212 0.5578C4.90493 0.400338 5.84653 0.300271 6.79161 0.258162C9.96669 0.0578013 13.149 -0.00176548 16.3313 3.95682e-05C18.6526 3.95682e-05 20.9745 0.0523859 23.297 0.157079C24.6183 0.216646 25.9396 0.290653 27.2537 0.460327C27.6551 0.500182 28.0524 0.57385 28.4414 0.680544C29.9179 1.13542 30.8547 2.12458 31.2519 3.60834C31.4298 4.32323 31.5505 5.05116 31.6129 5.78523C31.8381 7.96526 31.9256 10.1573 31.8746 12.3484C31.8421 13.7672 31.7717 15.1859 31.6165 16.5975C31.5539 17.3726 31.4241 18.1409 31.2284 18.8935C30.7627 20.4838 29.7085 21.4585 28.0894 21.8051C27.2113 21.9738 26.3221 22.0787 25.4288 22.1191C22.2663 22.3339 19.1021 22.3935 14.9829 22.4007ZM20.9956 11.2184C20.732 10.9964 12.9577 6.50544 12.7645 6.46032V15.9874L20.9956 11.2184Z" fill="#FF3636"/>
<path d="M84.5171 8.26356C84.6718 8.02424 84.8393 7.79345 85.0189 7.57222C85.5109 7.00108 86.1958 6.63098 86.9431 6.53251C87.5818 6.42971 88.2361 6.56249 88.7843 6.90616C89.2258 7.22547 89.5514 7.67973 89.7121 8.20038C89.9185 8.78847 90.0489 9.40053 90.1002 10.0217C90.2544 11.6884 90.3033 13.3632 90.2464 15.0361C90.2523 16.0741 90.1531 17.1101 89.9503 18.1282C89.8367 18.7322 89.6147 19.3107 89.2951 19.8357C89.0823 20.181 88.785 20.4663 88.4313 20.6647C88.0775 20.863 87.679 20.9679 87.2734 20.9693C86.8519 20.9933 86.43 20.9311 86.0333 20.7865C85.6367 20.6418 85.2737 20.4178 84.9666 20.1282C84.7959 19.964 84.6488 19.7769 84.5298 19.5722C84.5045 19.5271 84.4792 19.4693 84.4197 19.4711C84.3601 19.4729 84.333 19.5469 84.3186 19.6029C84.2464 19.8935 84.1778 20.1823 84.1092 20.4729C84.0406 20.7635 84.0334 20.7708 83.7482 20.7708H81.7987C81.5045 20.7708 81.4864 20.7473 81.4792 20.4585V1.36104C81.4792 0.879091 81.4395 0.889922 81.9539 0.889922H83.9792C84.5099 0.889922 84.472 0.861041 84.472 1.39714C84.472 3.57042 84.472 5.74431 84.472 7.91879C84.4577 8.03568 84.4733 8.15427 84.5171 8.26356ZM84.4774 13.9765C84.4774 15.2112 84.49 16.4477 84.4774 17.6841C84.4704 17.8414 84.5048 17.9979 84.577 18.1378C84.6492 18.2778 84.7567 18.3964 84.889 18.482C85.6272 19.0379 86.5135 18.778 86.8204 17.9116C86.9335 17.5793 87.0051 17.2343 87.0334 16.8845C87.0803 16.3971 87.0911 15.9079 87.1092 15.4188C87.1543 14.2004 87.1218 12.9838 87.1092 11.7672C87.11 11.2939 87.0793 10.8211 87.0171 10.352C86.9833 10.0028 86.9025 9.65977 86.777 9.33215C86.5352 8.77077 85.9792 8.53792 85.4341 8.81049C84.8384 9.1029 84.4774 9.57944 84.4774 10.2636C84.4666 11.5 84.4774 12.7365 84.4774 13.9765Z" fill="black"/>
<path d="M63.386 13.7635V20.3646C63.386 20.7671 63.386 20.7671 62.9817 20.7689H61.3264C60.9799 20.7689 60.9762 20.7689 60.9239 20.4332C60.8661 20.0722 60.806 19.7112 60.7434 19.3502C60.7363 19.289 60.7236 19.2286 60.7055 19.1697C60.6748 19.0812 60.608 19.0704 60.5503 19.148C60.4925 19.2256 60.4492 19.3105 60.3986 19.3935C59.8968 20.2058 59.2127 20.7744 58.2506 20.9386C57.7318 21.0384 57.1969 21.0174 56.6874 20.8772C56.3904 20.7953 56.1154 20.6483 55.8821 20.447C55.6489 20.2456 55.4634 19.9949 55.3391 19.713C55.1051 19.1635 54.9665 18.5781 54.9293 17.9819C54.9068 17.616 54.9032 17.249 54.9185 16.8827C54.9185 13.6564 54.9185 10.4308 54.9185 7.20579C54.9185 6.77077 54.8896 6.77619 55.3535 6.77619H57.6676C57.9943 6.77619 58.0105 6.79063 58.0105 7.11734V12.8935C58.0105 14.4182 58.0105 15.9434 58.0105 17.4693C58.0088 17.7507 58.0577 18.0301 58.155 18.2942C58.201 18.4519 58.2994 18.5891 58.434 18.6833C58.5685 18.7775 58.7311 18.823 58.895 18.8123C59.1731 18.8129 59.4459 18.7358 59.6825 18.5898C59.9192 18.4437 60.1103 18.2344 60.2344 17.9856C60.2819 17.8716 60.2987 17.7471 60.2831 17.6245C60.2831 15.7148 60.2831 13.8039 60.2831 11.8917V7.13539C60.2831 6.77438 60.2831 6.77438 60.6441 6.77438H63.0105C63.0809 6.77438 63.1513 6.77438 63.2217 6.77438C63.2415 6.77329 63.2613 6.77645 63.2798 6.78364C63.2983 6.79083 63.315 6.80189 63.3289 6.81609C63.3427 6.83028 63.3534 6.84727 63.3601 6.86591C63.3668 6.88456 63.3695 6.90443 63.3679 6.9242C63.3679 7.01265 63.3679 7.10471 63.3679 7.18774L63.386 13.7635Z" fill="black"/>
<path d="M79.529 13.7835C79.529 15.9929 79.529 18.2017 79.529 20.4098C79.529 20.7708 79.529 20.7708 79.168 20.7708H77.4586C77.1283 20.7708 77.1228 20.7708 77.0723 20.4495C77.0091 20.0687 76.9477 19.6896 76.8918 19.3088C76.887 19.2563 76.8755 19.2048 76.8575 19.1553C76.8268 19.0867 76.7727 19.0633 76.7185 19.1319C76.6778 19.1898 76.6404 19.2501 76.6066 19.3124C76.2498 19.9849 75.6646 20.5079 74.9564 20.7872C74.2482 21.0665 73.4636 21.0837 72.7438 20.8358C72.0326 20.6264 71.6066 20.1012 71.3629 19.4243C71.1439 18.7947 71.0418 18.1303 71.0615 17.464C71.0615 17.3755 71.0615 17.2835 71.0615 17.2005V7.21311C71.0615 6.75823 71.038 6.76907 71.5091 6.76907H73.7979C74.1174 6.76907 74.1301 6.78531 74.1319 7.11744C74.1319 7.20589 74.1319 7.29795 74.1319 7.38098C74.1319 10.4929 74.1319 13.6042 74.1319 16.7149C74.1222 17.1438 74.1506 17.5726 74.2167 17.9965C74.3755 18.8864 74.9929 18.9243 75.5326 18.7329C75.7338 18.662 75.9182 18.5501 76.0741 18.4044C76.1935 18.3025 76.2886 18.1753 76.3527 18.0319C76.4167 17.8886 76.4479 17.7328 76.4441 17.5759C76.4333 14.1138 76.4441 10.6517 76.4441 7.19145C76.4441 6.77087 76.4441 6.76907 76.8593 6.76907H79.1463H79.3575C79.473 6.76907 79.538 6.82141 79.538 6.94957C79.538 7.02899 79.538 7.10841 79.538 7.18603L79.529 13.7835Z" fill="black"/>
<path d="M44.57 13.796C44.57 13.2437 44.552 12.6913 44.57 12.139C44.6134 11.0361 44.7072 9.93683 45.1025 8.8899C45.6007 7.5662 46.5496 6.79845 47.9491 6.58666C48.7903 6.44496 49.6521 6.48559 50.4762 6.70579C50.9444 6.83402 51.377 7.06799 51.7407 7.38969C52.1043 7.71139 52.3893 8.11224 52.5736 8.56138C52.8753 9.27229 53.0623 10.0265 53.1278 10.796C53.2938 12.2798 53.265 13.769 53.2307 15.2581C53.2266 16.169 53.1244 17.0768 52.9256 17.9657C52.8212 18.4276 52.6548 18.8733 52.431 19.2906C52.2137 19.6941 51.9088 20.0437 51.5386 20.3139C51.1685 20.5841 50.7425 20.768 50.292 20.852C49.3817 21.0487 48.4403 21.0524 47.5285 20.8628C46.2957 20.6119 45.4924 19.8628 45.0682 18.6967C44.8719 18.115 44.7411 17.5132 44.6783 16.9025C44.5484 15.8646 44.5754 14.8303 44.57 13.796ZM50.0989 13.7762C50.0989 13.083 50.0989 12.3917 50.0989 11.6986C50.1134 11.2087 50.0953 10.7185 50.0448 10.2311C50.0084 9.83809 49.902 9.45479 49.7307 9.09929C49.413 8.50362 48.4509 8.48557 48.1224 9.04875C48.0091 9.24637 47.9263 9.45997 47.8769 9.68232C47.7601 10.2304 47.705 10.7898 47.7126 11.3502C47.7126 12.9531 47.7126 14.556 47.7126 16.1588C47.7123 16.5443 47.7346 16.9294 47.7794 17.3123C47.8066 17.6713 47.8951 18.0229 48.0411 18.352C48.1121 18.5146 48.2294 18.6526 48.3783 18.7489C48.5273 18.8452 48.7013 18.8955 48.8787 18.8935C49.0504 18.9038 49.2216 18.8659 49.3728 18.7839C49.524 18.7019 49.6493 18.5791 49.7343 18.4296C49.8331 18.2619 49.9033 18.0789 49.9419 17.8881C50.0436 17.4617 50.0963 17.025 50.0989 16.5866C50.1043 15.6516 50.0989 14.7148 50.0989 13.778V13.7762Z" fill="black"/>
<path d="M38.6595 17.5867C38.6595 16.6841 38.6595 15.7979 38.6595 14.9044C38.6589 14.703 38.631 14.5026 38.5765 14.3087C37.4441 10.2004 36.3123 6.09451 35.1812 1.99103C35.0783 1.61377 35.0783 1.61377 35.4646 1.61377H37.8581C38.1378 1.61377 38.1451 1.61377 38.2046 1.89536C38.5536 3.52111 38.9014 5.14866 39.248 6.77802C39.5205 8.04156 39.7895 9.30509 40.0115 10.5903C40.0368 10.7365 40.0584 10.8845 40.0837 11.0307C40.0837 11.0849 40.1035 11.1426 40.1667 11.148C40.2299 11.1535 40.2552 11.0795 40.266 11.0217C40.34 10.6083 40.4104 10.1932 40.488 9.77982C40.8328 7.95491 41.2534 6.14625 41.6487 4.33218C41.8232 3.52712 42.0001 2.72267 42.1794 1.91882C42.2461 1.61558 42.2498 1.61377 42.5602 1.61377H45.0566C45.2877 1.62279 45.3057 1.63724 45.2371 1.85926C45.0097 2.68717 44.7798 3.51449 44.5476 4.3412C43.6234 7.64806 42.6986 10.9543 41.7732 14.26C41.7226 14.4458 41.6977 14.6377 41.6992 14.8304C41.6992 16.6715 41.6992 18.5121 41.6992 20.352C41.6992 20.7672 41.6992 20.7672 41.275 20.769H38.9285C38.6739 20.7599 38.6523 20.7365 38.6451 20.4729C38.6451 20.4025 38.6451 20.3321 38.6451 20.2636L38.6595 17.5867Z" fill="black"/>
<path d="M91.6811 13.8446C91.6811 12.998 91.6613 12.2201 91.7064 11.4565C91.7374 10.5006 91.9265 9.55644 92.266 8.6623C92.4596 8.14147 92.7866 7.68062 93.2142 7.32583C93.6418 6.97105 94.1552 6.73477 94.7028 6.64064C95.529 6.47363 96.3802 6.47363 97.2064 6.64064C98.4428 6.8753 99.2046 7.628 99.5692 8.8067C99.754 9.45429 99.8677 10.1201 99.9085 10.7923C100.017 12.0341 100.001 13.2778 99.997 14.5215C99.997 14.7995 99.9771 14.8193 99.6955 14.8193H95.0963C94.701 14.8193 94.6937 14.8193 94.701 15.2074C94.6853 16.0207 94.7148 16.8342 94.7894 17.6442C94.8128 17.8798 94.8738 18.1102 94.9699 18.3265C95.0384 18.4954 95.1581 18.6385 95.3123 18.7357C95.4665 18.8328 95.6472 18.8791 95.8291 18.8681C95.9337 18.8762 96.0387 18.8762 96.1432 18.8681C96.3186 18.8477 96.4849 18.7791 96.6235 18.6697C96.7622 18.5604 96.8677 18.4147 96.9284 18.2489C97.087 17.8114 97.1689 17.3497 97.1703 16.8843C97.1703 16.841 97.1703 16.7977 97.1703 16.7543C97.1793 16.5468 97.2226 16.4944 97.423 16.5161C97.7371 16.5486 98.0529 16.5576 98.367 16.5738C98.7605 16.5955 99.1522 16.6226 99.5457 16.6424C99.8201 16.6551 99.8598 16.6713 99.8688 16.9385C99.8977 17.7796 99.8038 18.6027 99.3724 19.3482C98.9212 20.1298 98.2154 20.572 97.3634 20.8031C96.8396 20.9495 96.297 21.017 95.7533 21.0034C95.2095 20.997 94.67 20.9063 94.154 20.7345C93.7105 20.584 93.3073 20.334 92.9753 20.0036C92.6434 19.6732 92.3915 19.2712 92.2389 18.8283C91.9848 18.1461 91.8203 17.4338 91.7497 16.7092C91.6414 15.7309 91.6974 14.7489 91.6811 13.8446ZM95.8724 12.9782C96.1865 12.9782 96.5024 12.9782 96.8165 12.9782C97.0186 12.9782 97.0385 12.9511 97.0511 12.7489C97.0511 12.6876 97.0511 12.6262 97.0511 12.5684C97.0511 11.8608 97.0511 11.1533 97.0114 10.4457C97.0035 10.034 96.9341 9.62574 96.8056 9.2345C96.7471 9.04069 96.625 8.87222 96.4591 8.75616C96.3263 8.66713 96.1746 8.61017 96.016 8.58977C95.8574 8.56936 95.6962 8.58607 95.5452 8.63857C95.3942 8.69107 95.2574 8.77794 95.1457 8.89231C95.0339 9.00669 94.9503 9.14546 94.9013 9.29768C94.8216 9.56639 94.7713 9.84299 94.7515 10.1226C94.7046 10.619 94.7118 11.1154 94.701 11.6136C94.701 11.9746 94.701 12.3482 94.701 12.7146C94.701 12.9583 94.7262 12.9764 94.9789 12.98C95.2768 12.98 95.5746 12.9782 95.8724 12.9782Z" fill="black"/>
<path d="M68.8172 12.4495V20.3358C68.8172 20.7672 68.8172 20.7672 68.384 20.769H66.2288H65.9923C65.9681 20.7712 65.9436 20.7681 65.9207 20.7598C65.8978 20.7515 65.877 20.7383 65.8598 20.721C65.8426 20.7038 65.8293 20.683 65.821 20.6601C65.8128 20.6372 65.8096 20.6127 65.8118 20.5885C65.8118 20.4838 65.8118 20.3773 65.8118 20.2726V4.63002C65.8118 4.5163 65.8118 4.40078 65.8118 4.28706C65.8118 4.17334 65.7541 4.09031 65.6223 4.09031H63.0573C62.9779 4.09031 62.9003 4.09031 62.8209 4.09031C62.8011 4.09223 62.7812 4.08979 62.7625 4.08315C62.7437 4.0765 62.7267 4.06583 62.7126 4.05188C62.6985 4.03793 62.6876 4.02104 62.6807 4.00241C62.6739 3.98379 62.6712 3.96388 62.6728 3.9441C62.6728 3.89175 62.6728 3.83941 62.6728 3.78706C62.6728 3.16372 62.6728 2.54157 62.6728 1.92064C62.6728 1.62822 62.6728 1.6228 62.9635 1.6228H71.5338C71.931 1.6228 71.931 1.6228 71.931 2.00908C71.931 2.60656 71.931 3.20222 71.931 3.79789C71.931 4.07406 71.9075 4.09392 71.6259 4.09572H69.2613C69.1819 4.09572 69.1024 4.09572 69.0248 4.09572C68.857 4.11016 68.8317 4.13543 68.8209 4.30511C68.8209 4.39175 68.8209 4.48561 68.8209 4.56684L68.8172 12.4495Z" fill="black"/>
</svg>
